<svg xmlns="http://www.w3.org/2000/svg" xmlns:xlink="http://www.w3.org/1999/xlink" version="1.0" id="Ebene_1" x="0px" y="0px" width="100px" height="100px" viewBox="0 0 100 100" enable-background="new 0 0 100 100" xml:space="preserve">
<g>
	<path fill="#000000" d="M86.083,70.502c0,3.732-4.159,6.881-12.026,9.109c-7.026,1.99-16.334,3.086-26.208,3.086   s-19.182-1.096-26.208-3.086c-7.631-2.162-11.773-5.189-12.015-8.773c-0.173,0.494-0.266,0.998-0.266,1.508   c0,7.119,17.403,12.893,38.87,12.893c21.468,0,38.87-5.773,38.87-12.893c0-1.105-0.42-2.178-1.207-3.201   C86.019,69.588,86.083,70.041,86.083,70.502z"/>
	<path fill="#000000" d="M47.848,80.791c20.064,0,36.33-4.605,36.33-10.289c0-3.166-5.057-6-13.007-7.887   c-1.27,2.311-2.669,4.531-4.196,6.617c-0.779,1.57-3.035,2.752-6.879,3.605c-3.443,0.766-7.889,1.188-12.52,1.188   c-7.034,0-15.701-1.012-18.635-3.791h-0.078l-0.333-0.449c-0.036-0.045-0.07-0.092-0.103-0.139l-0.072-0.096   c-1.621-2.186-3.082-4.457-4.383-6.803c-7.63,1.887-12.452,4.662-12.452,7.754C11.519,76.186,27.784,80.791,47.848,80.791z"/>
	<path fill="#000000" d="M76.648,26.47c-0.191-1.724-0.445-3.43-0.781-5.106h-0.044c-0.585-3.67-13.005-6.602-28.247-6.602   c-15.243,0-27.663,2.932-28.247,6.602h-0.097c-0.764,3.811-1.167,7.756-1.167,11.794c0,11.934,3.504,23.036,9.524,32.317   c0.012,0.018,0.023,0.037,0.036,0.055c0.309,0.475,0.625,0.945,0.946,1.41c0.056,0.08,0.112,0.16,0.168,0.242   c0.32,0.457,0.644,0.91,0.976,1.357h0.014c1.181,2.141,8.718,3.791,17.846,3.791c9.367,0,17.062-1.738,17.928-3.959   c0.326-0.441,0.643-0.889,0.955-1.34c0.072-0.105,0.144-0.209,0.215-0.314c0.298-0.434,0.59-0.873,0.877-1.316   c0.008-0.014,0.018-0.027,0.027-0.043c0.32-0.498,0.634-1.004,0.939-1.514c0.017-0.025,0.032-0.053,0.049-0.08   c0.301-0.502,0.596-1.01,0.883-1.523c0.002-0.002,0.004-0.006,0.006-0.01h-0.001c0.474-0.844,0.929-1.701,1.361-2.57   c8.308-0.582,19.519-10.208,19.811-25.474l0.015-0.703C90.641,27.041,83.54,26.521,76.648,26.47z M47.576,26.008   c-13.414,0-24.288-1.958-24.288-4.375c0-2.416,10.874-4.375,24.288-4.375c13.413,0,24.287,1.959,24.287,4.375   C71.863,24.05,60.989,26.008,47.576,26.008z M84.787,34.069c-0.172,8.976-5.028,15.451-10.021,18.283   c2.068-6.172,3.116-12.618,3.116-19.194c0-0.271-0.006-0.542-0.015-0.812c6.731,0.186,6.934,0.989,6.934,1.068L84.787,34.069z"/>
</g>
</svg>